# This file uses centimeters as units for non-parametric coordinates.

mtllib TERRENO.mtl
g default
v -261.892386 1.627208 163.936784
v -210.572200 1.627208 163.936784
v -159.251952 1.627208 163.936784
v -107.931674 1.627208 163.936784
v -56.611442 1.627208 163.936784
v -5.291210 1.627208 163.936784
v 46.029034 1.627208 163.936784
v 97.349247 1.627208 163.936784
v 142.600703 1.627208 163.936784
v 188.990530 1.627208 163.936784
v 238.148730 1.627208 163.936784
v -261.892386 1.393544 -150.562188
v -210.572185 1.393544 -150.562188
v -159.251937 1.393544 -150.562188
v -107.931674 1.393544 -150.562188
v -56.611442 1.393544 -150.562188
v -5.291210 1.393544 -150.562188
v 46.029034 1.393544 -150.562188
v 97.349247 1.393544 -150.562188
v 142.600703 1.393544 -150.562188
v 188.990530 1.393544 -150.562188
v 238.148730 1.393544 -150.562188
v -261.892386 1.627208 -471.990363
v -210.572185 1.627208 -471.990363
v -159.251937 1.627208 -471.990363
v -107.931674 1.627208 -471.990363
v -56.611442 1.627208 -471.990363
v -5.291210 1.627208 -471.990363
v 46.029034 1.627208 -471.990363
v 97.349247 1.627208 -471.990363
v 142.600703 1.627208 -471.990363
v 188.990530 1.627208 -471.990363
v 238.148730 1.627208 -471.990363
vt 0.000000 0.017030
vt 0.100000 0.017030
vt 0.200000 0.017030
vt 0.300000 0.017030
vt 0.400000 0.017030
vt 0.500000 0.017030
vt 0.600000 0.017030
vt 0.700000 0.017030
vt 0.800000 0.017030
vt 0.900000 0.017030
vt 1.000000 0.017030
vt 0.000000 0.661679
vt 0.100000 0.661679
vt 0.200000 0.661679
vt 0.300000 0.661679
vt 0.400000 0.661679
vt 0.500000 0.661679
vt 0.600000 0.661679
vt 0.700000 0.661679
vt 0.800000 0.661679
vt 0.900000 0.661679
vt 1.000000 0.661679
vt 0.000000 0.984003
vt 0.100000 0.984003
vt 0.200000 0.984003
vt 0.300000 0.984003
vt 0.400000 0.984003
vt 0.500000 0.984003
vt 0.600000 0.984003
vt 0.700000 0.984003
vt 0.800000 0.984003
vt 0.900000 0.984003
vt 1.000000 0.984003
vn 0.000000 1.000000 0.000727
vn 0.000000 1.000000 0.000727
vn 0.000000 1.000000 0.000727
vn 0.000000 1.000000 0.000727
vn 0.000000 1.000000 0.000727
vn 0.000000 1.000000 0.000727
vn 0.000000 1.000000 0.000727
vn 0.000000 1.000000 0.000727
vn 0.000000 1.000000 0.000727
vn 0.000000 1.000000 0.000727
vn 0.000000 1.000000 0.000727
vn 0.000000 1.000000 0.000727
vn 0.000000 1.000000 0.000727
vn 0.000000 1.000000 0.000727
vn 0.000000 1.000000 0.000727
vn 0.000000 1.000000 0.000727
vn 0.000000 1.000000 0.000727
vn 0.000000 1.000000 0.000727
vn 0.000000 1.000000 0.000727
vn 0.000000 1.000000 0.000727
vn 0.000000 1.000000 0.000727
vn 0.000000 1.000000 0.000727
vn 0.000000 1.000000 -0.000743
vn 0.000000 1.000000 -0.000743
vn 0.000000 1.000000 -0.000743
vn 0.000000 1.000000 -0.000743
vn 0.000000 1.000000 -0.000743
vn 0.000000 1.000000 -0.000743
vn 0.000000 1.000000 -0.000743
vn 0.000000 1.000000 -0.000743
vn 0.000000 1.000000 -0.000743
vn 0.000000 1.000000 -0.000743
vn 0.000000 1.000000 -0.000743
vn 0.000000 1.000000 -0.000743
vn 0.000000 1.000000 -0.000743
vn 0.000000 1.000000 -0.000743
vn 0.000000 1.000000 -0.000743
vn 0.000000 1.000000 -0.000743
vn 0.000000 1.000000 -0.000743
vn 0.000000 1.000000 -0.000743
vn 0.000000 1.000000 -0.000743
vn 0.000000 1.000000 -0.000743
vn 0.000000 1.000000 -0.000743
vn 0.000000 1.000000 -0.000743
vn 0.000000 1.000000 -0.000743
vn 0.000000 1.000000 -0.000743
vn 0.000000 1.000000 -0.000743
vn 0.000000 1.000000 -0.000743
vn 0.000000 1.000000 -0.000743
vn 0.000000 1.000000 -0.000743
vn 0.000000 1.000000 -0.000743
vn 0.000000 1.000000 -0.000743
vn 0.000000 1.000000 -0.000743
vn 0.000000 1.000000 -0.000743
vn 0.000000 1.000000 -0.000743
vn 0.000000 1.000000 -0.000743
vn 0.000000 1.000000 -0.000743
vn 0.000000 1.000000 -0.000743
vn 0.000000 1.000000 -0.000743
vn 0.000000 1.000000 -0.000743
vn 0.000000 1.000000 -0.000743
vn 0.000000 1.000000 -0.000743
s 1
g Terreno
usemtl lambert45SG
f 13/13/1 24/24/2 23/23/3 12/12/4
f 14/14/5 25/25/6 24/24/2 13/13/1
f 15/15/7 26/26/8 25/25/6 14/14/5
f 16/16/9 27/27/10 26/26/8 15/15/7
f 17/17/11 28/28/12 27/27/10 16/16/9
f 18/18/13 29/29/14 28/28/12 17/17/11
f 19/19/15 30/30/16 29/29/14 18/18/13
f 20/20/17 31/31/18 30/30/16 19/19/15
f 21/21/19 32/32/20 31/31/18 20/20/17
f 22/22/21 33/33/22 32/32/20 21/21/19
s off
f 2/2/23 13/13/24 12/12/25 1/1/26
f 3/3/27 14/14/28 13/13/29 2/2/30
f 4/4/31 15/15/32 14/14/33 3/3/34
f 5/5/35 16/16/36 15/15/37 4/4/38
f 6/6/39 17/17/40 16/16/41 5/5/42
f 7/7/43 18/18/44 17/17/45 6/6/46
f 8/8/47 19/19/48 18/18/49 7/7/50
f 9/9/51 20/20/52 19/19/53 8/8/54
f 10/10/55 21/21/56 20/20/57 9/9/58
f 11/11/59 22/22/60 21/21/61 10/10/62
